<svg width="51" height="135" viewBox="0 0 51 135" fill="none" xmlns="http://www.w3.org/2000/svg">
<path d="M50.2298 98.4358L25.4491 73.6551L0.668377 98.4358L25.4491 123.217L50.2298 98.4358Z" fill="#FFF200"/>
<path d="M50.2545 36.5576L25.4738 11.7769L0.693036 36.5576L25.4738 61.3384L50.2545 36.5576Z" fill="#FFF200"/>
<path d="M25.4515 50.8906C25.2527 50.8906 25.1036 50.8409 24.9544 50.6918L0.198852 25.9362C0.0497222 25.7871 0 25.6379 0 25.4391C0 25.2403 0.0497222 25.0911 0.198852 24.942L24.9544 0.186413C25.203 -0.0621375 25.6504 -0.0621375 25.9486 0.186413L50.7042 24.942C50.8534 25.0911 50.9031 25.2403 50.9031 25.4391C50.9031 25.6379 50.8534 25.7871 50.7042 25.9362L25.9486 50.6918C25.7995 50.8409 25.6504 50.8906 25.4515 50.8906ZM1.69015 25.4391L25.5012 49.2502L49.3123 25.4391L25.5012 1.628L1.69015 25.4391Z" fill="black"/>
<path d="M25.4515 135C25.2527 135 25.1036 134.95 24.9544 134.801L0.198852 110.046C0.0497222 109.896 0 109.747 0 109.548C0 109.35 0.0497222 109.201 0.198852 109.051L24.9544 84.2958C25.203 84.0472 25.6504 84.0472 25.9486 84.2958L50.7042 109.051C50.8534 109.201 50.9031 109.35 50.9031 109.548C50.9031 109.747 50.8534 109.896 50.7042 110.046L25.9486 134.801C25.7995 134.95 25.6504 135 25.4515 135ZM1.69015 109.548L25.5012 133.36L49.3123 109.548L25.5012 85.7374L1.69015 109.548Z" fill="black"/>
<path d="M1.39187 25.4391H0V109.548H1.39187V25.4391Z" fill="black"/>
<path d="M26.1475 50.1947H24.7556V84.7431H26.1475V50.1947Z" fill="black"/>
<path d="M50.9528 25.4391H49.5609V109.548H50.9528V25.4391Z" fill="black"/>
</svg>
