<svg width="113" height="135" viewBox="0 0 113 135" fill="none" xmlns="http://www.w3.org/2000/svg">
<path d="M56.0801 72.3335L47.9827 64.2361C43.5233 59.7767 43.5233 52.5008 47.9827 47.9827C52.4422 43.5233 59.718 43.5233 64.2361 47.9827C68.6955 52.4422 68.6955 59.718 64.2361 64.2361L56.0801 72.3335Z" fill="#FFF200"/>
<path d="M56.0801 103.256L47.9827 95.1587C43.5233 90.6992 43.5233 83.4234 47.9827 78.9053C52.4422 74.4458 59.718 74.4458 64.2361 78.9053C68.6955 83.3647 68.6955 90.6406 64.2361 95.1587L56.0801 103.256Z" fill="#FFF200"/>
<path d="M56.0801 134.179L47.9827 126.081C43.5233 121.622 43.5233 114.346 47.9827 109.828C52.4422 105.368 59.718 105.368 64.2361 109.828C68.6955 114.287 68.6955 121.563 64.2361 126.081L56.0801 134.179Z" fill="#FFF200"/>
<path d="M56.0801 135C55.8454 135 55.6693 134.941 55.4933 134.765L16.4148 95.6867C-5.47159 73.8004 -5.47159 38.2424 16.4148 16.4148C38.3011 -5.47159 73.859 -5.47159 95.6867 16.4148C117.573 38.3011 117.573 73.8591 95.6867 95.6867L56.6082 134.765C56.5495 134.941 56.3148 135 56.0801 135ZM56.0801 1.68695C42.1151 1.68695 28.2087 6.96784 17.5883 17.5883C7.31989 27.8567 1.6283 41.5283 1.6283 56.0801C1.6283 70.6319 7.26122 84.3035 17.5883 94.5719L56.0801 133.064L94.5719 94.5719C104.84 84.3035 110.532 70.6319 110.532 56.0801C110.532 41.5283 104.899 27.8567 94.5719 17.5883C83.9515 6.96784 70.0451 1.68695 56.0801 1.68695Z" fill="black"/>
<path d="M56.0801 119.568C55.8454 119.568 55.6693 119.509 55.4933 119.333L24.1601 88.0001C6.55715 70.3971 6.55715 41.763 24.1601 24.16C41.7631 6.55709 70.3972 6.55709 88.0001 24.16C105.603 41.763 105.603 70.3971 88.0001 88.0001L56.6668 119.333C56.5495 119.451 56.3148 119.568 56.0801 119.568ZM56.0801 12.6008C44.4621 12.6008 33.5483 17.1189 25.3336 25.3336C8.37612 42.2911 8.37612 69.869 25.3336 86.8265L56.0801 117.573L86.8266 86.8265C103.784 69.869 103.784 42.2911 86.8266 25.3336C78.6119 17.1189 67.698 12.6008 56.0801 12.6008Z" fill="black"/>
<path d="M56.08 104.077C55.8453 104.077 55.6693 104.019 55.4933 103.843L31.9053 80.2548C18.5858 66.9352 18.5858 45.2249 31.9053 31.9053C38.3597 25.4509 46.9265 21.8717 56.08 21.8717C65.2336 21.8717 73.8004 25.4509 80.2548 31.9053C93.5744 45.2249 93.5744 66.9352 80.2548 80.2548L56.6668 103.843C56.5494 104.019 56.3147 104.077 56.08 104.077ZM56.08 23.5146C47.748 23.5146 39.4159 26.6831 33.0789 33.0202C20.4047 45.6943 20.4047 66.3485 33.0789 79.0226L56.08 102.024L79.0813 79.0226C91.7554 66.3485 91.7554 45.6943 79.0813 33.0202C72.7442 26.6831 64.4121 23.5146 56.08 23.5146Z" fill="black"/>
<path d="M56.08 88.5869C55.8453 88.5869 55.6693 88.5282 55.4932 88.3522L39.6506 72.5095C35.2498 68.1088 32.8441 62.2998 32.8441 56.0801C32.8441 49.8604 35.2498 44.0514 39.6506 39.6507C48.6868 30.6145 63.4732 30.6145 72.5094 39.6507C81.5456 48.6869 81.5456 63.4733 72.5094 72.5095L56.6668 88.3522C56.5494 88.5282 56.3147 88.5869 56.08 88.5869ZM56.08 34.4871C50.5644 34.4871 44.9901 36.5995 40.8241 40.8242C36.7168 44.9316 34.4871 50.3298 34.4871 56.0801C34.4871 61.8304 36.7168 67.2873 40.8241 71.336L56.08 86.5919L71.3359 71.336C79.7853 62.8866 79.7853 49.2149 71.3359 40.7655C67.1699 36.5995 61.6543 34.4871 56.08 34.4871Z" fill="black"/>
<path d="M56.0801 73.155C55.8454 73.155 55.6694 73.0963 55.4933 72.9203L47.396 64.8229C45.049 62.4758 43.8168 59.4247 43.8168 56.1388C43.8168 52.8529 45.1076 49.743 47.396 47.4546C52.2075 42.6432 60.0114 42.6432 64.8229 47.4546C69.6344 52.2661 69.6344 60.0701 64.8229 64.8816L56.7256 72.9789C56.5496 73.0376 56.3148 73.155 56.0801 73.155ZM56.0801 45.401C53.3223 45.401 50.6232 46.4572 48.5109 48.5108C46.5159 50.5058 45.401 53.205 45.401 56.0801C45.401 58.9552 46.5159 61.5957 48.5109 63.6494L56.0801 71.2186L63.6494 63.6494C67.8154 59.4833 67.8154 52.7355 63.6494 48.5695C61.5957 46.4572 58.8379 45.401 56.0801 45.401Z" fill="black"/>
</svg>
