<svg width="135" height="53" viewBox="0 0 135 53" fill="none" xmlns="http://www.w3.org/2000/svg">
<path d="M52.1365 52.1365H108.621V26.3788L52.1365 12.8788V52.1365Z" fill="#F543FF"/>
<path d="M52.1365 52.7163H0.579739C0.248451 52.7163 0 52.4678 0 52.1365V0.579755C0 0.248467 0.248451 0 0.579739 0H52.1365C52.4678 0 52.7163 0.248467 52.7163 0.579755V52.1365C52.7163 52.4678 52.4678 52.7163 52.1365 52.7163ZM1.1595 51.5567H51.5567V1.15951H1.1595V51.5567Z" fill="black"/>
<path d="M134.42 52.7163H108.621C108.29 52.7163 108.041 52.4678 108.041 52.1365V26.3374C108.041 26.0062 108.29 25.7577 108.621 25.7577H134.42C134.752 25.7577 135 26.0062 135 26.3374V52.1365C135 52.4678 134.71 52.7163 134.42 52.7163ZM109.201 51.5568H133.84V26.9172H109.201V51.5568Z" fill="black"/>
<path d="M52.2972 0.0440833L51.9504 1.15048L134.219 26.9382L134.566 25.8318L52.2972 0.0440833Z" fill="black"/>
<path d="M108.621 51.5568H52.1365V52.7163H108.621V51.5568Z" fill="black"/>
<path d="M0.689049 0.0234319L0.419922 1.15131L108.493 26.939L108.762 25.8111L0.689049 0.0234319Z" fill="black"/>
<path d="M8.53066 2.31903H7.37115V52.1365H8.53066V2.31903Z" fill="black"/>
<path d="M15.8604 4.0997H14.7009V52.1365H15.8604V4.0997Z" fill="black"/>
<path d="M23.2316 5.75613H22.0721V52.1779H23.2316V5.75613Z" fill="black"/>
<path d="M30.6027 7.61963H29.4432V52.1779H30.6027V7.61963Z" fill="black"/>
<path d="M37.9739 9.35889H36.8144V52.1365H37.9739V9.35889Z" fill="black"/>
<path d="M45.3451 11.1396H44.1856V52.1779H45.3451V11.1396Z" fill="black"/>
</svg>
