<svg width="135" height="134" viewBox="0 0 135 134" fill="none" xmlns="http://www.w3.org/2000/svg">
<path d="M132.401 33.7129H34.2327V131.881H132.401V33.7129Z" fill="#00F2B2"/>
<path d="M34.2326 100.248H0.965332V98.1683H33.1931V1.03963H35.2723V99.208C35.2723 99.7278 34.8267 100.248 34.2326 100.248Z" fill="black"/>
<path d="M1.03958 133.441C0.891062 133.441 0.742547 133.441 0.66829 133.366C0.297003 133.218 0 132.847 0 132.401V1.0396C0 0.44554 0.445517 0 1.03958 0H133.96C134.406 0 134.777 0.222768 134.926 0.668312C135.074 1.0396 135 1.48514 134.703 1.78217L1.78215 133.218C1.55938 133.366 1.26235 133.441 1.03958 133.441ZM2.0792 2.0792V129.95L131.436 2.0792H2.0792Z" fill="black"/>
<path d="M33.5755 0.269618L0.34436 32.9878L1.80313 34.4695L35.0343 1.75126L33.5755 0.269618Z" fill="black"/>
<path d="M66.7504 0.295983L0.288086 65.7323L1.74685 67.214L68.2091 1.77762L66.7504 0.295983Z" fill="black"/>
<path d="M100.767 32.6733H1.03955V34.7525H100.767V32.6733Z" fill="black"/>
<path d="M67.4999 67.5H1.03955V65.4208H66.4604V1.03963H68.5396V66.4604C68.5396 67.0545 68.094 67.5 67.4999 67.5Z" fill="black"/>
<path d="M101.807 1.03963H99.7277V33.7872H101.807V1.03963Z" fill="black"/>
<path d="M100.018 0.248482L0.3125 98.916L1.77501 100.394L101.481 1.72638L100.018 0.248482Z" fill="black"/>
</svg>
