<svg width="135" height="24" viewBox="0 0 135 24" fill="none" xmlns="http://www.w3.org/2000/svg">
<path d="M134.925 11.703H11.6276V22.2735H134.925V11.703Z" fill="#FFF200"/>
<path d="M22.198 23.255H1.05704C0.453016 23.255 0 22.802 0 22.198V1.05704C0 0.453016 0.453016 0 1.05704 0H22.198C22.802 0 23.255 0.453016 23.255 1.05704V22.198C23.255 22.802 22.802 23.255 22.198 23.255ZM2.18959 21.1409H21.2164V2.11408H2.18959V21.1409Z" fill="black"/>
<path d="M135 21.1409H11.703V23.255H135V21.1409Z" fill="black"/>
<path d="M56.401 23.255H35.26C34.656 23.255 34.203 22.802 34.203 22.198V1.05704C34.203 0.453016 34.656 0 35.26 0H56.401C57.005 0 57.458 0.453016 57.458 1.05704V22.198C57.458 22.802 57.005 23.255 56.401 23.255ZM36.3926 21.1409H55.3439V2.11408H36.3171V21.1409H36.3926Z" fill="black"/>
<path d="M90.6796 23.255H69.5386C68.9346 23.255 68.4816 22.802 68.4816 22.198V1.05704C68.4816 0.453016 68.9346 0 69.5386 0H90.6796C91.2836 0 91.7366 0.453016 91.7366 1.05704V22.198C91.7366 22.802 91.2081 23.255 90.6796 23.255ZM70.5957 21.1409H89.6225V2.11408H70.5957V21.1409Z" fill="black"/>
<path d="M124.883 23.255H103.742C103.138 23.255 102.685 22.802 102.685 22.198V1.05704C102.685 0.453016 103.138 0 103.742 0H124.883C125.487 0 125.94 0.453016 125.94 1.05704V22.198C125.94 22.802 125.411 23.255 124.883 23.255ZM104.799 21.1409H123.826V2.11408H104.799V21.1409Z" fill="black"/>
</svg>
