<svg width="58" height="135" viewBox="0 0 58 135" fill="none" xmlns="http://www.w3.org/2000/svg">
<path d="M28.9454 135H28.3345C24.8103 135 21.944 132.134 21.944 128.609V48.9158C21.944 45.3916 24.8103 42.5252 28.3345 42.5252H28.9454C32.4696 42.5252 35.3359 45.3916 35.3359 48.9158V128.609C35.3359 132.134 32.4696 135 28.9454 135Z" fill="#FFF200"/>
<path d="M28.6634 1.31569C13.5799 1.31569 1.31569 13.5799 1.31569 28.6634V82.654C1.31569 97.7375 13.5799 110.002 28.6634 110.002C43.747 110.002 56.0111 97.7375 56.0111 82.654V28.6634C56.0111 13.5799 43.747 1.31569 28.6634 1.31569ZM28.6634 111.317C12.875 111.317 0 98.4894 0 82.654V28.6634C0 12.875 12.8281 0 28.6634 0C44.4518 0 57.3268 12.8281 57.3268 28.6634V82.654C57.3268 98.4894 44.4518 111.317 28.6634 111.317Z" fill="black"/>
<path d="M28.6634 8.31707C15.5534 8.31707 4.88686 18.9836 4.88686 32.0936V79.2708C4.88686 92.3808 15.5534 103.047 28.6634 103.047C41.7734 103.047 52.4399 92.3808 52.4399 79.2708V32.0936C52.4399 18.9836 41.7734 8.31707 28.6634 8.31707ZM28.6634 104.363C14.8016 104.363 3.57117 93.0856 3.57117 79.2708V32.0936C3.57117 18.2788 14.8486 7.00137 28.6634 7.00137C42.4782 7.00137 53.7556 18.2788 53.7556 32.0936V79.2708C53.7556 93.0856 42.4782 104.363 28.6634 104.363Z" fill="black"/>
<path d="M28.6634 15.2715C17.527 15.2715 8.41103 24.3404 8.41103 35.5238V75.8406C8.41103 86.977 17.48 96.0929 28.6634 96.0929C39.7998 96.0929 48.9157 87.024 48.9157 75.8406V35.5238C48.8687 24.3874 39.7998 15.2715 28.6634 15.2715ZM28.6634 97.3616C16.7751 97.3616 7.09534 87.6819 7.09534 75.7936V35.4768C7.09534 23.5886 16.7751 13.9088 28.6634 13.9088C40.5517 13.9088 50.2314 23.5886 50.2314 35.4768V75.7936C50.1844 87.7288 40.5517 97.3616 28.6634 97.3616Z" fill="black"/>
<path d="M28.6634 22.2729C19.4535 22.2729 11.9822 29.7442 11.9822 38.954V72.4104C11.9822 81.6203 19.4535 89.0915 28.6634 89.0915C37.8733 89.0915 45.3446 81.6203 45.3446 72.4104V38.954C45.3446 29.7442 37.8733 22.2729 28.6634 22.2729ZM28.6634 90.4072C18.7487 90.4072 10.6665 82.3251 10.6665 72.4104V38.954C10.6665 29.0393 18.7487 20.9572 28.6634 20.9572C38.5781 20.9572 46.6603 29.0393 46.6603 38.954V72.4104C46.6603 82.3251 38.5781 90.4072 28.6634 90.4072Z" fill="black"/>
<path d="M28.6634 29.2273C21.427 29.2273 15.5534 35.1009 15.5534 42.3373V68.9332C15.5534 76.1695 21.427 82.0432 28.6634 82.0432C35.8997 82.0432 41.7733 76.1695 41.7733 68.9332V42.3373C41.7733 35.1479 35.8997 29.2273 28.6634 29.2273ZM28.6634 83.4059C20.6752 83.4059 14.2377 76.9213 14.2377 68.9802V42.3843C14.2377 34.3961 20.7222 27.9586 28.6634 27.9586C36.6515 27.9586 43.089 34.4431 43.089 42.3843V68.9802C43.089 76.9213 36.6045 83.4059 28.6634 83.4059Z" fill="black"/>
<path d="M28.6635 36.2287C23.4007 36.2287 19.0777 40.5047 19.0777 45.8145V65.5499C19.0777 70.8127 23.3537 75.1357 28.6635 75.1357C33.9732 75.1357 38.2492 70.8597 38.2492 65.5499V45.8145C38.2492 40.5047 33.9263 36.2287 28.6635 36.2287ZM28.6635 76.4514C22.6488 76.4514 17.762 71.5646 17.762 65.5499V45.8145C17.762 39.7998 22.6488 34.913 28.6635 34.913C34.6781 34.913 39.5649 39.7998 39.5649 45.8145V65.5499C39.5649 71.5646 34.6781 76.4514 28.6635 76.4514Z" fill="black"/>
<path d="M28.6635 43.1831C25.3272 43.1831 22.6488 45.9085 22.6488 49.1977V62.1197C22.6488 65.456 25.3742 68.1344 28.6635 68.1344C31.9527 68.1344 34.6781 65.409 34.6781 62.1197V49.1977C34.6781 45.9085 31.9997 43.1831 28.6635 43.1831ZM28.6635 69.45C24.6224 69.45 21.3331 66.1608 21.3331 62.1197V49.1977C21.3331 45.1566 24.6224 41.8674 28.6635 41.8674C32.7045 41.8674 35.9938 45.1566 35.9938 49.1977V62.1197C35.9938 66.1608 32.7045 69.45 28.6635 69.45Z" fill="black"/>
</svg>
