<svg width="135" height="138" viewBox="0 0 135 138" fill="none" xmlns="http://www.w3.org/2000/svg">
<path d="M133.763 23.7844H111.311V46.2368H133.763V23.7844Z" fill="#F543FF"/>
<path d="M133.763 68.6892H111.311V91.1416H133.763V68.6892Z" fill="#F543FF"/>
<path d="M133.763 113.689H111.311V136.142H133.763V113.689Z" fill="#F543FF"/>
<path d="M67.4524 25.1162H1.33189C0.57079 25.1162 0 24.5455 0 23.7844V1.33189C0 0.57079 0.57079 0 1.33189 0H45C58.129 0 68.7844 10.6554 68.7844 23.7844C68.7844 24.5455 68.2135 25.1162 67.4524 25.1162ZM2.66384 22.4524H66.1205C65.4546 11.4165 56.2262 2.66384 45 2.66384H2.66384V22.4524Z" fill="black"/>
<path d="M133.668 47.5687H89.9999C76.871 47.5687 66.2156 36.9133 66.2156 23.7844C66.2156 23.0233 66.7864 22.4524 67.5475 22.4524H133.668C134.429 22.4524 135 23.0233 135 23.7844V46.2368C135 46.9979 134.334 47.5687 133.668 47.5687ZM68.8794 25.1163C69.5454 36.1522 78.7737 44.9048 89.9999 44.9048H132.336V25.1163H68.8794Z" fill="black"/>
<path d="M67.4524 70.0211H1.33189C0.57079 70.0211 0 69.4503 0 68.6892V46.2368C0 45.4757 0.57079 44.9048 1.33189 44.9048H45C58.129 44.9048 68.7844 55.5602 68.7844 68.6892C68.7844 69.4503 68.2135 70.0211 67.4524 70.0211ZM2.66384 67.3573H66.1205C65.4546 56.3213 56.2262 47.5687 45 47.5687H2.66384V67.3573Z" fill="black"/>
<path d="M133.668 92.5687H89.9999C76.871 92.5687 66.2156 81.9133 66.2156 68.7843C66.2156 68.0232 66.7864 67.4524 67.5475 67.4524H133.668C134.429 67.4524 135 68.0232 135 68.7843V91.2368C135 91.9027 134.334 92.5687 133.668 92.5687ZM68.8794 70.0211C69.5454 81.0571 78.7737 89.8097 89.9999 89.8097H132.336V70.0211H68.8794Z" fill="black"/>
<path d="M67.4524 115.021H1.33189C0.57079 115.021 0 114.45 0 113.689V91.2368C0 90.4757 0.57079 89.9049 1.33189 89.9049H45C58.129 89.9049 68.7844 100.56 68.7844 113.689C68.7844 114.355 68.2135 115.021 67.4524 115.021ZM2.66384 112.357H66.1205C65.4546 101.321 56.2262 92.5687 45 92.5687H2.66384V112.357Z" fill="black"/>
<path d="M133.668 137.474H89.9999C76.871 137.474 66.2156 126.818 66.2156 113.689C66.2156 112.928 66.7864 112.357 67.5475 112.357H133.668C134.429 112.357 135 112.928 135 113.689V136.142C135 136.903 134.334 137.474 133.668 137.474ZM68.8794 115.021C69.5454 126.057 78.7737 134.81 89.9999 134.81H132.336V115.021H68.8794Z" fill="black"/>
</svg>
