<svg width="130" height="135" viewBox="0 0 130 135" fill="none" xmlns="http://www.w3.org/2000/svg">
<path d="M14.3822 67.5371C14.3822 85.626 20.1648 100.231 27.2817 100.231H102.01C109.127 100.231 114.909 85.626 114.909 67.5371C114.909 49.4481 109.127 34.8435 102.01 34.8435H27.2817C20.0906 34.8435 14.3822 49.4481 14.3822 67.5371Z" fill="#00F2B2"/>
<path d="M102.01 135C94.5964 135 87.6278 127.883 82.5124 114.909C77.5454 102.232 74.8024 85.4036 74.8024 67.5371C74.8024 49.6705 77.5454 32.8419 82.5124 20.1648C87.6278 7.19111 94.5223 0.0741425 102.01 0.0741425C109.423 0.0741425 116.392 7.19111 121.507 20.1648C126.475 32.8419 129.218 49.6705 129.218 67.5371C129.218 85.4036 126.475 102.232 121.507 114.909C116.318 127.883 109.423 135 102.01 135ZM102.01 2.07579C95.5602 2.07579 89.1846 8.89622 84.4399 20.9061C79.547 33.3608 76.8781 49.8929 76.8781 67.5371C76.8781 85.1812 79.547 101.713 84.4399 114.168C89.1846 126.104 95.5602 132.998 102.01 132.998C108.46 132.998 114.835 126.178 119.58 114.168C124.473 101.713 127.142 85.1812 127.142 67.5371C127.142 49.8929 124.473 33.3608 119.58 20.9061C114.835 8.89622 108.46 2.07579 102.01 2.07579Z" fill="black"/>
<path d="M27.2075 135C19.794 135 12.8254 127.883 7.71007 114.909C2.74302 102.232 0 85.4036 0 67.5371C0 49.6705 2.74302 32.8419 7.71007 20.1648C12.8254 7.19111 19.7199 0.0741425 27.2075 0.0741425C34.6211 0.0741425 41.5898 7.19111 46.7051 20.1648C51.6722 32.8419 54.4152 49.6705 54.4152 67.5371C54.4152 85.4036 51.6722 102.232 46.7051 114.909C41.5898 127.883 34.6952 135 27.2075 135ZM27.2075 2.07579C20.7578 2.07579 14.3822 8.89622 9.63756 20.9061C4.74465 33.3608 2.07582 49.8929 2.07582 67.5371C2.07582 85.1812 4.74465 101.713 9.63756 114.168C14.3822 126.104 20.7578 132.998 27.2075 132.998C33.6573 132.998 40.033 126.178 44.7776 114.168C49.6705 101.713 52.3394 85.1812 52.3394 67.5371C52.3394 49.8929 49.6705 33.3608 44.7776 20.9061C40.033 8.89622 33.6573 2.07579 27.2075 2.07579Z" fill="black"/>
<path d="M27.2075 118.097C15.6424 118.097 6.67212 95.8567 6.67212 67.4629C6.67212 39.0692 15.7166 16.8287 27.2075 16.8287C38.7726 16.8287 47.743 39.0692 47.743 67.4629C47.743 95.8567 38.7726 118.097 27.2075 118.097ZM27.2075 18.9786C22.537 18.9786 17.8665 24.0198 14.3822 32.8419C10.7496 42.1087 8.74794 54.4152 8.74794 67.5371C8.74794 80.659 10.7496 92.9654 14.3822 102.232C17.8665 111.054 22.537 116.096 27.2075 116.096C31.878 116.096 36.5486 111.054 40.0329 102.232C43.6655 92.9654 45.6672 80.659 45.6672 67.5371C45.6672 54.4152 43.6655 42.1087 40.0329 32.8419C36.6227 24.0198 31.9521 18.9786 27.2075 18.9786Z" fill="black"/>
<path d="M27.2075 101.269C19.4233 101.269 13.2701 86.4415 13.2701 67.5371C13.2701 48.6326 19.3492 33.8056 27.2075 33.8056C34.9917 33.8056 41.1449 48.6326 41.1449 67.5371C41.1449 86.4415 35.0658 101.269 27.2075 101.269ZM27.2075 35.8814C20.7577 35.8814 15.3459 50.4119 15.3459 67.5371C15.3459 84.6623 20.7577 99.1928 27.2075 99.1928C33.6572 99.1928 39.0691 84.6623 39.0691 67.5371C39.0691 50.4119 33.6572 35.8814 27.2075 35.8814Z" fill="black"/>
<path d="M27.2076 84.3657C22.4629 84.3657 19.9424 75.6919 19.9424 67.5371C19.9424 59.3822 22.4629 50.7084 27.2076 50.7084C31.9522 50.7084 34.4728 59.3822 34.4728 67.5371C34.4728 75.6919 31.9522 84.3657 27.2076 84.3657ZM27.2076 52.7842C24.7611 52.7842 22.0181 59.0857 22.0181 67.5371C22.0181 75.9885 24.7611 82.29 27.2076 82.29C29.654 82.29 32.397 75.9885 32.397 67.5371C32.397 59.0857 29.654 52.7842 27.2076 52.7842Z" fill="black"/>
<path d="M101.936 0H27.2075V2.07578H101.936V0Z" fill="black"/>
<path d="M101.936 132.924H27.2075V135H101.936V132.924Z" fill="black"/>
</svg>
