<svg width="65" height="135" viewBox="0 0 65 135" fill="none" xmlns="http://www.w3.org/2000/svg">
<path d="M63.1812 87.4352L47.5648 71.884L32.0135 87.4352L16.4623 71.884L0.911011 87.4352L16.4623 102.986L0.911011 118.538L16.4623 134.089L32.0135 118.538L47.5648 134.089L63.1812 118.538L47.5648 102.986L63.1812 87.4352Z" fill="#FFF200"/>
<path d="M47.5648 64.0107C47.3045 64.0107 47.1093 63.9457 46.9141 63.7505L32.0135 48.8499L17.1129 63.7505C16.7876 64.0758 16.202 64.0758 15.8116 63.7505L0.260288 48.1992C0.0650839 48.004 0 47.8088 0 47.5485C0 47.2882 0.0650839 47.093 0.260288 46.8978L15.1609 31.9972L0.260288 17.0967C0.0650839 16.9014 0 16.7062 0 16.446C0 16.1857 0.0650839 15.9905 0.260288 15.7953L15.8116 0.244005C16.1369 -0.0813351 16.7225 -0.0813351 17.1129 0.244005L32.0135 15.1446L46.9141 0.244005C47.2394 -0.0813351 47.8901 -0.0813351 48.2155 0.244005L63.7667 15.7953C63.9619 15.9905 64.027 16.1857 64.027 16.446C64.027 16.7062 63.9619 16.9014 63.7667 17.0967L48.8661 31.9972L63.7667 46.8978C63.9619 47.093 64.027 47.2882 64.027 47.5485C64.027 47.8088 63.9619 48.004 63.7667 48.1992L48.2155 63.7505C48.0853 63.9457 47.8251 64.0107 47.5648 64.0107ZM2.21233 47.5485L16.4623 61.7984L31.3628 46.8978C31.6882 46.5725 32.3388 46.5725 32.6642 46.8978L47.5648 61.7984L61.8147 47.5485L46.9141 32.6479C46.7189 32.4527 46.6538 32.2575 46.6538 31.9972C46.6538 31.7369 46.7189 31.5417 46.9141 31.3465L61.8147 16.446L47.5648 2.19605L32.6642 17.0967C32.3388 17.422 31.6882 17.422 31.3628 17.0967L16.4623 2.19605L2.21233 16.446L17.1129 31.3465C17.3081 31.5417 17.3732 31.7369 17.3732 31.9972C17.3732 32.2575 17.3081 32.4527 17.1129 32.6479L2.21233 47.5485Z" fill="black"/>
<path d="M47.5648 135C47.3045 135 47.1093 134.935 46.9141 134.74L32.0135 119.839L17.1129 134.74C16.7876 135.065 16.202 135.065 15.8116 134.74L0.260288 119.188C0.0650839 118.993 0 118.798 0 118.538C0 118.277 0.0650839 118.082 0.260288 117.887L15.1609 102.986L0.260288 88.0859C0.0650839 87.8907 0 87.6955 0 87.4352C0 87.1749 0.0650839 86.9797 0.260288 86.7845L15.8116 71.2333C16.1369 70.9079 16.7225 70.9079 17.1129 71.2333L32.0135 86.1338L46.9141 71.2333C47.2394 70.9079 47.8901 70.9079 48.2155 71.2333L63.7667 86.7845C63.9619 86.9797 64.027 87.1749 64.027 87.4352C64.027 87.6955 63.9619 87.8907 63.7667 88.0859L48.8661 102.986L63.7667 117.887C63.9619 118.082 64.027 118.277 64.027 118.538C64.027 118.798 63.9619 118.993 63.7667 119.188L48.2155 134.74C48.0853 134.935 47.8251 135 47.5648 135ZM2.21233 118.538L16.4623 132.788L31.3628 117.887C31.6882 117.562 32.3388 117.562 32.6642 117.887L47.5648 132.788L61.8147 118.538L46.9141 103.637C46.7189 103.442 46.6538 103.247 46.6538 102.986C46.6538 102.726 46.7189 102.531 46.9141 102.336L61.8147 87.4352L47.5648 73.1853L32.6642 88.0859C32.3388 88.4112 31.6882 88.4112 31.3628 88.0859L16.4623 73.1853L2.21233 87.4352L17.1129 102.336C17.3081 102.531 17.3732 102.726 17.3732 102.986C17.3732 103.247 17.3081 103.442 17.1129 103.637L2.21233 118.538Z" fill="black"/>
<path d="M64.092 47.5485H62.2701V118.538H64.092V47.5485Z" fill="black"/>
<path d="M32.9244 47.5485H31.1025V118.538H32.9244V47.5485Z" fill="black"/>
<path d="M17.3732 63.0998H15.5513V134.089H17.3732V63.0998Z" fill="black"/>
<path d="M48.4757 63.0998H46.6538V134.089H48.4757V63.0998Z" fill="black"/>
<path d="M1.82194 47.5485H0V118.538H1.82194V47.5485Z" fill="black"/>
</svg>
